<svg width="43" height="55" viewBox="0 0 43 55" fill="none" xmlns="http://www.w3.org/2000/svg">
<path d="M37.2142 18.3333H34.5951V13.0952C34.5951 5.7619 28.8332 0 21.4999 0C14.1665 0 8.40463 5.7619 8.40463 13.0952V18.3333H5.78558C2.90463 18.3333 0.547485 20.6905 0.547485 23.5714V49.7619C0.547485 52.6429 2.90463 55 5.78558 55H37.2142C40.0951 55 42.4522 52.6429 42.4522 49.7619V23.5714C42.4522 20.6905 40.0951 18.3333 37.2142 18.3333ZM21.4999 41.9048C18.6189 41.9048 16.2618 39.5476 16.2618 36.6667C16.2618 33.7857 18.6189 31.4286 21.4999 31.4286C24.3808 31.4286 26.738 33.7857 26.738 36.6667C26.738 39.5476 24.3808 41.9048 21.4999 41.9048ZM29.6189 18.3333H13.3808V13.0952C13.3808 8.64286 17.0475 4.97619 21.4999 4.97619C25.9522 4.97619 29.6189 8.64286 29.6189 13.0952V18.3333Z" fill="#E53434"/>
</svg>
