<svg width="18" height="22" viewBox="0 0 18 22" fill="none" xmlns="http://www.w3.org/2000/svg">
<path d="M15.2857 7.33333H14.2381V5.2381C14.2381 2.30476 11.9333 0 8.99997 0C6.06664 0 3.76188 2.30476 3.76188 5.2381V7.33333H2.71426C1.56188 7.33333 0.619019 8.27619 0.619019 9.42857V19.9048C0.619019 21.0571 1.56188 22 2.71426 22H15.2857C16.4381 22 17.3809 21.0571 17.3809 19.9048V9.42857C17.3809 8.27619 16.4381 7.33333 15.2857 7.33333ZM8.99997 16.7619C7.84759 16.7619 6.90473 15.819 6.90473 14.6667C6.90473 13.5143 7.84759 12.5714 8.99997 12.5714C10.1524 12.5714 11.0952 13.5143 11.0952 14.6667C11.0952 15.819 10.1524 16.7619 8.99997 16.7619ZM12.2476 7.33333H5.75235V5.2381C5.75235 3.45714 7.21902 1.99048 8.99997 1.99048C10.7809 1.99048 12.2476 3.45714 12.2476 5.2381V7.33333Z" fill="#E53434"/>
</svg>
