<svg width="45" height="44" viewBox="0 0 45 44" fill="none" xmlns="http://www.w3.org/2000/svg">
<g clip-path="url(#clip0)">
<path d="M22.8382 0.614901C22.7667 0.627629 22.696 0.644887 22.6267 0.666568C22.2446 0.750904 21.9041 0.963107 21.6631 1.26702C21.4221 1.57093 21.2955 1.94773 21.305 2.33323V3.9999H6.07424C4.72775 3.9999 3.43642 4.52669 2.48431 5.46437C1.5322 6.40205 0.997314 7.67382 0.997314 8.9999L0.997314 30.6666C0.997314 33.4266 3.27178 35.6666 6.07424 35.6666H21.305V36.2916L12.1022 40.8232C11.6956 41.0166 11.3836 41.3612 11.2349 41.7811C11.0862 42.201 11.113 42.6619 11.3094 43.0624C11.5058 43.4629 11.8556 43.7701 12.282 43.9166C12.7084 44.063 13.1764 44.0366 13.583 43.8432L21.305 40.0416V40.6666C21.305 41.1086 21.4833 41.5325 21.8007 41.8451C22.118 42.1576 22.5485 42.3332 22.9973 42.3332C23.4461 42.3332 23.8766 42.1576 24.194 41.8451C24.5113 41.5325 24.6896 41.1086 24.6896 40.6666V40.0416L32.4116 43.8432C32.8183 44.0366 33.2862 44.063 33.7126 43.9166C34.139 43.7701 34.4889 43.4629 34.6852 43.0624C34.8816 42.6619 34.9084 42.201 34.7597 41.7811C34.611 41.3612 34.299 41.0166 33.8924 40.8232L24.6896 36.2916V35.6666H39.9204C42.7229 35.6666 44.9973 33.4266 44.9973 30.6666V8.9999C44.9973 7.67382 44.4624 6.40205 43.5103 5.46437C42.5582 4.52669 41.2669 3.9999 39.9204 3.9999H24.6896V2.33323C24.6982 2.09623 24.6553 1.86016 24.5638 1.64079C24.4723 1.42143 24.3343 1.22382 24.159 1.06117C23.9838 0.898522 23.7753 0.774577 23.5476 0.697618C23.3198 0.62066 23.078 0.592459 22.8382 0.614901ZM4.38193 8.9999H41.6127V30.6666H4.38193V8.9999ZM36.3242 10.6666C35.9452 10.7067 35.591 10.8717 35.319 11.1349L29.7665 16.6049L25.9064 12.7999C25.7215 12.6131 25.4947 12.4716 25.2442 12.3869C24.9937 12.3021 24.7265 12.2765 24.4641 12.312C24.2017 12.3475 23.9514 12.4432 23.7334 12.5913C23.5154 12.7394 23.3357 12.9359 23.2089 13.1649L18.1844 21.8116L16.1215 16.7066C16.0213 16.443 15.855 16.2087 15.638 16.0255C15.4211 15.8423 15.1605 15.7162 14.8807 15.659C14.6009 15.6017 14.311 15.6152 14.0379 15.6981C13.7648 15.7811 13.5175 15.9307 13.319 16.1332L8.24208 21.1332C7.91893 21.4513 7.73729 21.8827 7.73713 22.3326C7.73697 22.7826 7.91831 23.2141 8.24124 23.5324C8.56417 23.8507 9.00225 24.0295 9.4591 24.0297C9.91595 24.0299 10.3542 23.8513 10.6773 23.5332L13.9029 20.3566L16.3364 26.2932C16.4512 26.591 16.6503 26.8501 16.91 27.0398C17.1698 27.2296 17.4793 27.3421 17.8019 27.364C18.1245 27.386 18.4468 27.3164 18.7305 27.1635C19.0143 27.0107 19.2476 26.781 19.4029 26.5016L25.0619 16.7616L28.5515 20.1999C28.7093 20.3607 28.8983 20.4886 29.1074 20.5759C29.3164 20.6632 29.5412 20.7082 29.7682 20.7082C29.9953 20.7082 30.2201 20.6632 30.4291 20.5759C30.6381 20.4886 30.8272 20.3607 30.985 20.1999L37.7542 13.5332C38.0216 13.2895 38.2019 12.9673 38.2684 12.6146C38.3349 12.2618 38.2841 11.8973 38.1235 11.5753C37.9628 11.2533 37.701 10.9909 37.3768 10.8272C37.0527 10.6635 36.6835 10.6071 36.3242 10.6666Z" fill="#32D882"/>
</g>
<defs>
<clipPath id="clip0">
<rect width="44" height="43.3333" fill="white" transform="translate(0.997314 0.666504)"/>
</clipPath>
</defs>
</svg>
