<svg width="49" height="49" viewBox="0 0 49 49" fill="none" xmlns="http://www.w3.org/2000/svg">
<path fill-rule="evenodd" clip-rule="evenodd" d="M7.76778 13.1904H13.084C13.4692 13.1904 13.8545 13.4996 13.8545 13.9633V21.8462C13.8545 22.2326 13.5463 22.619 13.084 22.619H7.76778C7.38255 22.619 6.99731 22.3099 6.99731 21.8462V13.886C7.07436 13.4996 7.38255 13.1904 7.76778 13.1904Z" fill="#32D882"/>
<path fill-rule="evenodd" clip-rule="evenodd" d="M7.85446 3.78325C7.85446 1.90825 6.31353 0.333252 4.38736 0.333252C2.4612 0.333252 0.997314 1.90825 0.997314 3.78325C0.997314 4.90825 1.53664 5.88325 2.38415 6.55825C2.61529 6.78325 2.76939 7.08325 2.76939 7.38325V47.9583C2.76939 48.1833 2.92348 48.3333 3.15462 48.3333H5.69715C5.92829 48.3333 6.08239 48.1833 6.08239 47.9583V7.38325C6.08239 7.08325 6.23648 6.78325 6.46762 6.55825C7.31513 5.95825 7.85446 4.90825 7.85446 3.78325Z" fill="#32D882"/>
<path fill-rule="evenodd" clip-rule="evenodd" d="M45.695 7.19043H19.728C17.9268 7.19043 16.4258 8.70133 16.4258 10.5144V26.1522C16.4258 27.9652 17.9268 29.4761 19.728 29.4761H45.695C47.4962 29.4761 48.9972 27.9652 48.9972 26.1522V10.5144C48.9972 8.62578 47.4962 7.19043 45.695 7.19043Z" fill="#32D882"/>
<path d="M22.6444 22.8333H24.0304L24.6134 21.1503H27.8034L28.3974 22.8333H29.7834L26.8574 15.0233H25.5594L22.6444 22.8333ZM25.0204 20.0063L26.1974 16.6183H26.2194L27.4074 20.0063H25.0204ZM30.9968 22.8333H32.3278V20.0503H33.6698C35.3528 20.0503 36.4968 19.2473 36.4968 17.5533C36.4968 16.1013 35.6938 15.0233 33.8238 15.0233H30.9968V22.8333ZM32.3278 18.8513V16.2113H33.6368C34.5938 16.2113 35.1218 16.7063 35.1218 17.5313C35.1218 18.3013 34.6268 18.8513 33.5378 18.8513H32.3278ZM37.9588 22.8333H39.2898V15.0233H37.9588V22.8333Z" fill="white"/>
</svg>