<svg width="41" height="45" viewBox="0 0 41 45" fill="none" xmlns="http://www.w3.org/2000/svg">
<path fill-rule="evenodd" clip-rule="evenodd" d="M18.8025 0.615234H20.6519C28.5087 0.615234 35.5001 4.40504 39.8834 10.2295L40.9973 11.7096L37.9678 13.9817C39.8789 17.0824 40.9949 20.7433 40.9949 24.657C40.9949 35.8869 31.8817 45 20.6519 45C9.42198 45 0.308838 35.8869 0.308838 24.657C0.308838 14.0505 8.43831 5.33224 18.8025 4.39701V0.615234ZM18.8025 8.11445C10.4845 9.03543 4.00757 16.0949 4.00757 24.657C4.00757 33.8441 11.4647 41.3013 20.6519 41.3013C29.839 41.3013 37.2961 33.8441 37.2961 24.657C37.2961 21.5773 36.4524 18.689 34.9938 16.2122L18.8025 28.3557V8.11445ZM31.9433 13.8767L22.5012 9.15567V20.9583L31.9433 13.8767ZM35.2515 11.3955L22.5012 5.02036V4.3973C27.735 4.87109 32.4078 7.3353 35.747 11.0239L35.2515 11.3955Z" fill="#32D882"/>
</svg>
