<svg width="33" height="319" viewBox="0 0 33 319" fill="none" xmlns="http://www.w3.org/2000/svg">
<rect x="15.8752" y="37.0697" width="1.27078" height="53.3727" rx="0.635389" fill="#E3E3E3"/>
<rect x="15.8752" y="132.378" width="1.27078" height="53.3727" rx="0.635389" fill="#E3E3E3"/>
<rect x="15.8752" y="227.686" width="1.27078" height="53.3727" rx="0.635389" fill="#E3E3E3"/>
<path fill-rule="evenodd" clip-rule="evenodd" d="M16.5109 31.9862C25.2838 31.9862 32.3957 24.8744 32.3957 16.1015C32.3957 7.32863 25.2838 0.216797 16.5109 0.216797C7.73805 0.216797 0.626221 7.32863 0.626221 16.1015C0.626221 24.8744 7.73805 31.9862 16.5109 31.9862Z" fill="#15EF81"/>
<path fill-rule="evenodd" clip-rule="evenodd" d="M16.5106 128.566C25.2835 128.566 32.3953 121.454 32.3953 112.681C32.3953 103.908 25.2835 96.7963 16.5106 96.7963C7.73769 96.7963 0.625854 103.908 0.625854 112.681C0.625854 121.454 7.73769 128.566 16.5106 128.566Z" stroke="#15EF81" stroke-width="0.997515"/>
<path fill-rule="evenodd" clip-rule="evenodd" d="M16.5106 222.603C25.2835 222.603 32.3953 215.492 32.3953 206.719C32.3953 197.946 25.2835 190.834 16.5106 190.834C7.73769 190.834 0.625854 197.946 0.625854 206.719C0.625854 215.492 7.73769 222.603 16.5106 222.603Z" stroke="#D5D5D5" stroke-width="0.997515"/>
<path fill-rule="evenodd" clip-rule="evenodd" d="M16.5106 317.912C25.2835 317.912 32.3953 310.8 32.3953 302.027C32.3953 293.254 25.2835 286.142 16.5106 286.142C7.73769 286.142 0.625854 293.254 0.625854 302.027C0.625854 310.8 7.73769 317.912 16.5106 317.912Z" stroke="#D5D5D5" stroke-width="0.997515"/>
</svg>
