<svg width="62" height="47" viewBox="0 0 62 47" fill="none" xmlns="http://www.w3.org/2000/svg">
<path d="M16.7787 20.1275C18.1219 13.6441 24.1661 8.78165 31.2177 8.78165C36.2546 8.78165 40.2841 11.0508 42.9704 14.6166L48.6788 8.13332C44.6493 3.59499 38.2693 0.67749 31.2177 0.67749C19.4651 0.67749 9.72713 9.10582 8.04818 20.1275H0.996582L12.7493 33.0941L24.5019 20.1275H16.7787ZM49.6862 13.6441L37.9335 26.6108H45.6567C43.9778 33.0941 38.2693 37.9566 31.2177 37.9566C26.1809 37.9566 22.1514 35.6875 19.4651 32.1216L13.7566 38.2808C17.7861 43.1433 24.1661 46.0608 31.2177 46.0608C42.9704 46.0608 52.7083 37.6325 54.3873 26.6108H61.4389L49.6862 13.6441Z" fill="#32D882"/>
</svg>
