<svg width="64" height="65" viewBox="0 0 64 65" fill="none" xmlns="http://www.w3.org/2000/svg">
<path d="M58.6565 17.8803L38.969 6.88035C38.6782 6.71788 38.3518 6.63269 38.02 6.63269C37.6882 6.63269 37.3618 6.71788 37.0711 6.88035L17.3836 17.8803C17.0749 18.053 16.8175 18.3066 16.6382 18.6148C16.459 18.923 16.3644 19.2744 16.3644 19.6323C16.3644 19.9903 16.459 20.3417 16.6382 20.6499C16.8175 20.9581 17.0749 21.2117 17.3836 21.3843L36.0513 31.8143V53.2523L30.0741 49.9123L28.1763 53.4143L37.0711 58.3843C37.3617 58.5472 37.6881 58.6326 38.02 58.6326C38.3519 58.6326 38.6784 58.5472 38.969 58.3843L58.6565 47.3843C58.9652 47.2118 59.2228 46.9582 59.4022 46.65C59.5815 46.3418 59.6762 45.9904 59.6763 45.6323V19.6323C59.6762 19.2743 59.5815 18.9229 59.4022 18.6147C59.2228 18.3065 58.9652 18.0529 58.6565 17.8803ZM38.02 10.9163L53.6224 19.6323L38.02 28.3483L22.4177 19.6323L38.02 10.9163ZM55.7388 44.4503L39.9888 53.2503V31.8123L55.7388 23.0123V44.4503Z" fill="#32D882"/>
<path d="M20.3013 32.6324H4.55127V28.6324H20.3013V32.6324Z" fill="#32D882"/>
<path d="M24.2388 48.6324H8.48877V44.6324H24.2388V48.6324Z" fill="#32D882"/>
<path d="M28.1763 40.6324H12.4263V36.6324H28.1763V40.6324Z" fill="#32D882"/>
</svg>
