<svg width="54" height="54" viewBox="0 0 54 54" fill="none" xmlns="http://www.w3.org/2000/svg">
<path d="M47.3576 44.9025H9.81596V43.71L20.8576 32.6683L29.2493 41.06C29.6631 41.4713 30.2228 41.7021 30.8062 41.7021C31.3896 41.7021 31.9493 41.4713 32.363 41.06L48.9255 24.4975C49.1325 24.2922 49.2968 24.0479 49.4089 23.7788C49.521 23.5097 49.5788 23.2211 49.5788 22.9295C49.5788 22.638 49.521 22.3494 49.4089 22.0803C49.2968 21.8112 49.1325 21.5669 48.9255 21.3616C48.5118 20.9503 47.9521 20.7195 47.3687 20.7195C46.7853 20.7195 46.2256 20.9503 45.8118 21.3616L30.7951 36.3783L22.4255 27.9866C22.0118 27.5753 21.4521 27.3445 20.8687 27.3445C20.2853 27.3445 19.7256 27.5753 19.3118 27.9866L9.81596 37.4604V26.0433L20.8576 15.0016L27.041 21.185C27.4547 21.5963 28.0144 21.8271 28.5978 21.8271C29.1812 21.8271 29.741 21.5963 30.1547 21.185L40.7326 10.607L45.5689 15.4433C45.9847 15.8562 46.5475 16.087 47.1336 16.0849C47.7196 16.0829 48.2808 15.8481 48.6937 15.4323C49.1066 15.0164 49.3374 14.4536 49.3353 13.8676C49.3332 13.2816 49.0985 12.7204 48.6826 12.3075L42.2564 5.92538C41.8426 5.51408 41.2829 5.28322 40.6995 5.28322C40.1161 5.28322 39.5564 5.51408 39.1426 5.92538L28.5426 16.5254L22.3814 10.342C21.9676 9.93074 21.4079 9.69988 20.8245 9.69988C20.2411 9.69988 19.6814 9.93074 19.2676 10.342L9.81596 19.7937V7.3608C9.81596 6.77511 9.5833 6.21341 9.16915 5.79927C8.75501 5.38513 8.19331 5.15247 7.60763 5.15247C7.02194 5.15247 6.46024 5.38513 6.0461 5.79927C5.63195 6.21341 5.39929 6.77511 5.39929 7.3608V47.1108C5.39929 47.6965 5.63195 48.2582 6.0461 48.6723C6.46024 49.0865 7.02194 49.3191 7.60763 49.3191H47.3576C47.9433 49.3191 48.505 49.0865 48.9192 48.6723C49.3333 48.2582 49.566 47.6965 49.566 47.1108C49.566 46.5251 49.3333 45.9634 48.9192 45.5493C48.505 45.1351 47.9433 44.9025 47.3576 44.9025Z" fill="#32D882"/>
</svg>
