<svg width="62" height="42" viewBox="0 0 62 42" fill="none" xmlns="http://www.w3.org/2000/svg">
<path d="M41.5734 19.8671C41.5734 25.6751 34.0531 30.0311 34.0531 34.3871H28.0368C28.0368 30.0311 20.5165 25.6751 20.5165 19.8671C20.5165 14.2624 25.2392 9.70311 31.0449 9.70311C36.8506 9.70311 41.5734 14.2624 41.5734 19.8671ZM34.0531 37.2911H28.0368V41.6471H34.0531V37.2911ZM61.1262 21.3191C61.1262 13.3041 57.7571 6.04407 52.3124 0.787842L49.1238 3.86608C51.5007 6.15615 53.3859 8.8767 54.6712 11.8717C55.9566 14.8667 56.6168 18.0772 56.614 21.3191C56.614 28.1144 53.7563 34.3 49.1238 38.7721L52.3124 41.8503C55.11 39.1573 57.3289 35.9572 58.8414 32.4337C60.354 28.9103 61.1305 25.1331 61.1262 21.3191ZM5.47583 21.3191C5.47583 14.5237 8.33355 8.33823 12.9661 3.86608L9.77746 0.787842C6.97982 3.48087 4.76098 6.68103 3.24842 10.2044C1.73586 13.7279 0.959394 17.5051 0.96364 21.3191C0.96364 29.3341 4.33274 36.5941 9.77746 41.8503L12.9661 38.7721C10.5892 36.482 8.70396 33.7615 7.4186 30.7665C6.13325 27.7715 5.47304 24.561 5.47583 21.3191ZM47.5896 21.3191C47.5896 25.7332 45.7246 29.7116 42.7465 32.6156L45.9352 35.6939C47.8936 33.8084 49.4467 31.5677 50.505 29.1008C51.5633 26.6338 52.106 23.9892 52.1018 21.3191C52.1018 15.7144 49.7555 10.6324 45.9352 6.94431L42.7465 10.0225C45.7246 12.9265 47.5896 16.905 47.5896 21.3191ZM16.1547 35.6939L19.3433 32.6156C16.3352 29.7116 14.5002 25.7332 14.5002 21.3191C14.5002 16.905 16.3653 12.9265 19.3433 10.0225L16.1547 6.94431C14.1962 8.8298 12.6432 11.0704 11.5849 13.5374C10.5266 16.0044 9.98388 18.649 9.98802 21.3191C9.98802 26.9238 12.3344 32.0058 16.1547 35.6939Z" fill="#32D882"/>
</svg>
