<svg width="28" height="28" viewBox="0 0 28 28" fill="none" xmlns="http://www.w3.org/2000/svg">
	<path d="M22.1666 5.83331H20.9999V3.49998C20.9999 3.19056 20.877 2.89381 20.6582 2.67502C20.4394 2.45623 20.1427 2.33331 19.8333 2.33331C19.5238 2.33331 19.2271 2.45623 19.0083 2.67502C18.7895 2.89381 18.6666 3.19056 18.6666 3.49998V5.83331H9.33325V3.49998C9.33325 3.19056 9.21034 2.89381 8.99154 2.67502C8.77275 2.45623 8.47601 2.33331 8.16659 2.33331C7.85717 2.33331 7.56042 2.45623 7.34163 2.67502C7.12284 2.89381 6.99992 3.19056 6.99992 3.49998V5.83331H5.83325C4.90499 5.83331 4.01476 6.20206 3.35838 6.85844C2.702 7.51482 2.33325 8.40506 2.33325 9.33331V10.5H25.6666V9.33331C25.6666 8.40506 25.2978 7.51482 24.6415 6.85844C23.9851 6.20206 23.0948 5.83331 22.1666 5.83331Z" fill="#717579"></path>
	<path d="M2.33325 22.1666C2.33325 23.0949 2.702 23.9851 3.35838 24.6415C4.01476 25.2979 4.90499 25.6666 5.83325 25.6666H22.1666C23.0948 25.6666 23.9851 25.2979 24.6415 24.6415C25.2978 23.9851 25.6666 23.0949 25.6666 22.1666V12.8333H2.33325V22.1666Z" fill="#717579"></path>
</svg>