<svg width="56" height="62" viewBox="0 0 56 62" fill="none" xmlns="http://www.w3.org/2000/svg">
<path fill-rule="evenodd" clip-rule="evenodd" d="M25.453 0H27.9983C38.8118 0 48.4341 5.29389 54.4669 13.4299L56 15.4974L51.8304 18.6713C54.4607 23.0025 55.9966 28.1164 55.9966 33.5833C55.9966 49.2701 43.4541 62 27.9983 62C12.5425 62 0 49.2701 0 33.5833C0 18.7674 11.1887 6.58907 25.453 5.28267V0ZM25.453 10.4755C14.0049 11.762 5.0906 21.6232 5.0906 33.5833C5.0906 46.4166 15.354 56.8333 27.9983 56.8333C40.6427 56.8333 50.906 46.4166 50.906 33.5833C50.906 29.2813 49.7449 25.2468 47.7373 21.7871L25.453 38.75V10.4755ZM43.5388 18.5246L30.5436 11.9299V28.4167L43.5388 18.5246ZM48.092 15.0587L30.5436 6.15341V5.28307C37.7469 5.9449 44.1782 9.3871 48.774 14.5396L48.092 15.0587Z" fill="#A739DB"/>
</svg>
