<svg width="63" height="63" viewBox="0 0 63 63" fill="none" xmlns="http://www.w3.org/2000/svg">
<path fill-rule="evenodd" clip-rule="evenodd" d="M9.21321 17.0566H16.0615C16.5578 17.0566 17.054 17.4549 17.054 18.0522V28.2069C17.054 28.7047 16.657 29.2025 16.0615 29.2025H9.21321C8.71696 29.2025 8.2207 28.8042 8.2207 28.2069V17.9526C8.31995 17.4549 8.71696 17.0566 9.21321 17.0566Z" fill="#A739DB"/>
<path fill-rule="evenodd" clip-rule="evenodd" d="M9.32453 4.93841C9.32453 2.52304 7.33952 0.494141 4.85825 0.494141C2.37698 0.494141 0.491211 2.52304 0.491211 4.93841C0.491211 6.38762 1.18597 7.64361 2.27773 8.51314C2.57548 8.80298 2.77398 9.18944 2.77398 9.5759V61.8443C2.77398 62.1342 2.97248 62.3274 3.27023 62.3274H6.54551C6.84326 62.3274 7.04176 62.1342 7.04176 61.8443V9.5759C7.04176 9.18944 7.24027 8.80298 7.53802 8.51314C8.62978 7.74022 9.32453 6.38762 9.32453 4.93841Z" fill="#A739DB"/>
<path fill-rule="evenodd" clip-rule="evenodd" d="M55.1475 21.4733C54.6874 21.4733 54.2273 21.6653 53.9513 22.0494C53.6752 22.4334 53.4912 23.0095 53.4912 23.6816C53.4912 24.3537 53.6752 24.9298 53.9513 25.3138C54.2273 25.6979 54.6874 25.8899 55.1475 25.8899C55.6075 25.8899 56.0676 25.6979 56.3436 25.3138C56.6197 24.9298 56.8037 24.3537 56.8037 23.6816C56.8037 23.0095 56.6197 22.4334 56.3436 22.0494C56.0676 21.6653 55.6995 21.4733 55.1475 21.4733Z" fill="#A739DB"/>
<path fill-rule="evenodd" clip-rule="evenodd" d="M44.7683 21.4733H43.5537V25.8899H44.7683C46.2037 25.8899 46.8662 25.1709 46.8662 23.6302C46.8662 22.9112 46.6454 22.3977 46.3141 21.9868C45.9829 21.6787 45.4308 21.4733 44.7683 21.4733Z" fill="#A739DB"/>
<path fill-rule="evenodd" clip-rule="evenodd" d="M58.0707 9.32764H24.62C22.2998 9.32764 20.3662 11.274 20.3662 13.6096V33.754C20.3662 36.0896 22.2998 38.0359 24.62 38.0359H58.0707C60.3909 38.0359 62.3245 36.0896 62.3245 33.754V13.6096C62.3245 11.1766 60.3909 9.32764 58.0707 9.32764Z" fill="#A739DB"/>
<path d="M28.3048 25.4438H29.6908L30.2738 23.7608H33.4638L34.0578 25.4438H35.4438L32.5178 17.6338H31.2198L28.3048 25.4438ZM30.6808 22.6168L31.8578 19.2288H31.8798L33.0678 22.6168H30.6808ZM36.6572 25.4438H37.9882V22.6608H39.3302C41.0132 22.6608 42.1572 21.8578 42.1572 20.1638C42.1572 18.7118 41.3542 17.6338 39.4842 17.6338H36.6572V25.4438ZM37.9882 21.4618V18.8218H39.2972C40.2542 18.8218 40.7822 19.3168 40.7822 20.1418C40.7822 20.9118 40.2872 21.4618 39.1982 21.4618H37.9882ZM43.6192 25.4438H44.9502V17.6338H43.6192V25.4438Z" fill="white"/>
</svg>
