<svg width="81" height="81" viewBox="0 0 81 81" fill="none" xmlns="http://www.w3.org/2000/svg">
<rect x="0.0371094" y="0.644531" width="80" height="80" rx="23" fill="#0B2C58"/>
<path d="M25.6083 38.626C26.9515 32.1427 32.9957 27.2802 40.0473 27.2802C45.0842 27.2802 49.1137 29.5494 51.8 33.1152L57.5084 26.6319C53.4789 22.0935 47.0989 19.176 40.0473 19.176C28.2947 19.176 18.5567 27.6044 16.8778 38.626H9.82617L21.5788 51.5927L33.3315 38.626H25.6083ZM58.5158 32.1427L46.7631 45.1093H54.4863C52.8074 51.5927 47.0989 56.4552 40.0473 56.4552C35.0105 56.4552 30.981 54.186 28.2947 50.6202L22.5862 56.7793C26.6157 61.6418 32.9957 64.5593 40.0473 64.5593C51.8 64.5593 61.5379 56.131 63.2169 45.1093H70.2685L58.5158 32.1427Z" fill="white"/>
</svg>
