<svg width="67" height="24" viewBox="0 0 67 24" fill="none" xmlns="http://www.w3.org/2000/svg">
<path fill-rule="evenodd" clip-rule="evenodd" d="M7.98583 6.67733C6.77445 5.66935 5.34259 5.16531 3.13418 5.74387C1.79854 6.09377 0.432133 5.29468 0.0822245 3.95904C-0.267684 2.6234 0.531408 1.257 1.86705 0.907091C5.68233 -0.0924295 8.76824 0.823794 11.1839 2.83388C13.4242 4.69799 14.985 7.41973 16.223 9.84104C16.6308 10.6387 17.002 11.3978 17.3538 12.1172C18.1575 13.7607 18.8599 15.1969 19.6662 16.4126C20.8185 18.1498 21.5986 18.4999 22.1878 18.4999C23.0382 18.4999 24.1035 17.9926 25.5038 16.462C26.8808 14.9569 28.1947 12.8934 29.6135 10.6076C29.7002 10.4678 29.7875 10.3269 29.8753 10.1852C31.1548 8.1206 32.5438 5.87906 34.0193 4.181C35.5306 2.44176 37.7403 0.553263 40.6488 0.837264C43.3312 1.09919 45.3228 2.99842 46.7461 4.80758C48.2223 6.68402 49.5401 9.06131 50.7135 11.1943L50.8271 11.4009C52.0088 13.5493 53.045 15.4334 54.0932 16.8184C55.2726 18.3768 55.8805 18.4999 55.9793 18.4999C57.435 18.4999 58.9128 17.3419 60.2577 15.338C60.8749 14.4184 61.3523 13.4814 61.6772 12.7645C61.838 12.4095 61.9576 12.1171 62.035 11.9191C62.0736 11.8203 62.1015 11.7456 62.1185 11.699C62.127 11.6758 62.1328 11.6596 62.1359 11.6511L62.1367 11.6488C62.1368 11.6484 62.137 11.6479 62.1371 11.6475C62.1373 11.6472 62.1374 11.6468 62.1375 11.6465C62.1375 11.6464 62.1375 11.6464 62.1375 11.6463C62.1377 11.6458 62.1379 11.6454 62.138 11.6449C62.1381 11.6447 62.1382 11.6446 62.1382 11.6444C62.5892 10.3417 64.0101 9.64963 65.3142 10.0985C66.6198 10.5478 67.3139 11.9704 66.8645 13.276L64.614 12.5014C66.8645 13.276 66.8643 13.2767 66.864 13.2774L66.8634 13.2791L66.8621 13.2829L66.8586 13.2931L66.8482 13.3226C66.8397 13.3464 66.8283 13.3782 66.814 13.4174C66.7852 13.496 66.7445 13.6047 66.6919 13.7394C66.5868 14.0083 66.4332 14.3828 66.2314 14.8282C65.8308 15.7121 65.2247 16.9095 64.4094 18.1243C62.8894 20.3892 60.1065 23.4999 55.9793 23.4999C53.2866 23.4999 51.3601 21.4926 50.1062 19.8357C48.8309 18.1506 47.6343 15.9729 46.5303 13.9639C46.4641 13.8434 46.3983 13.7235 46.3327 13.6044C45.1187 11.3977 43.9939 9.39585 42.8164 7.89914C41.586 6.33517 40.7127 5.86728 40.1629 5.8136C39.8391 5.78199 39.1104 5.94499 37.7935 7.46054C36.5924 8.84281 35.4019 10.7618 34.0345 12.9659C33.9772 13.0582 33.9196 13.151 33.8617 13.2443C32.489 15.456 30.938 17.9295 29.1929 19.837C27.4711 21.719 25.1574 23.4999 22.1878 23.4999C18.9571 23.4999 16.8723 21.2462 15.4994 19.1763C14.5008 17.6707 13.5689 15.7657 12.7018 13.993C12.3828 13.341 12.0726 12.7069 11.7711 12.1172C10.5482 9.72541 9.37264 7.83128 7.98583 6.67733Z" fill="#F81680"/>
</svg>
