<svg width="163" height="119" viewBox="0 0 163 119" fill="none" xmlns="http://www.w3.org/2000/svg">
<g filter="url(#filter0_d_787:206)">
<rect x="11.3643" y="11.5146" width="140.271" height="96.1857" rx="15.875" fill="white"/>
</g>
<path fill-rule="evenodd" clip-rule="evenodd" d="M99.1836 87.2936C114.287 87.2936 126.531 74.9074 126.531 59.6282C126.531 44.3491 114.287 31.9629 99.1836 31.9629C92.4144 31.9629 86.2197 34.4508 81.4442 38.572C76.6687 34.4511 70.4742 31.9634 63.7053 31.9634C48.6015 31.9634 36.3574 44.3496 36.3574 59.6287C36.3574 74.9079 48.6015 87.2941 63.7053 87.2941C70.4744 87.2941 76.6692 84.8062 81.4447 80.685C86.2202 84.8059 92.4147 87.2936 99.1836 87.2936Z" fill="#ED0006"/>
<path fill-rule="evenodd" clip-rule="evenodd" d="M81.4453 80.6849C87.3256 75.6106 91.0542 68.0599 91.0542 59.6282C91.0542 51.1966 87.3256 43.6459 81.4453 38.5716C86.2208 34.4506 92.4154 31.9629 99.1843 31.9629C114.288 31.9629 126.532 44.3491 126.532 59.6282C126.532 74.9074 114.288 87.2936 99.1843 87.2936C92.4154 87.2936 86.2208 84.8059 81.4453 80.6849Z" fill="#F9A000"/>
<path fill-rule="evenodd" clip-rule="evenodd" d="M81.4455 80.6849C87.3255 75.6106 91.054 68.0601 91.054 59.6286C91.054 51.1971 87.3255 43.6466 81.4455 38.5723C75.5654 43.6466 71.8369 51.1971 71.8369 59.6286C71.8369 68.0601 75.5654 75.6106 81.4455 80.6849Z" fill="#FF5E00"/>
<defs>
<filter id="filter0_d_787:206" x="0.364259" y="0.514649" width="162.271" height="118.186" filterUnits="userSpaceOnUse" color-interpolation-filters="sRGB">
<feFlood flood-opacity="0" result="BackgroundImageFix"/>
<feColorMatrix in="SourceAlpha" type="matrix" values="0 0 0 0 0 0 0 0 0 0 0 0 0 0 0 0 0 0 127 0" result="hardAlpha"/>
<feOffset/>
<feGaussianBlur stdDeviation="5.5"/>
<feComposite in2="hardAlpha" operator="out"/>
<feColorMatrix type="matrix" values="0 0 0 0 0 0 0 0 0 0 0 0 0 0 0 0 0 0 0.05 0"/>
<feBlend mode="normal" in2="BackgroundImageFix" result="effect1_dropShadow_787:206"/>
<feBlend mode="normal" in="SourceGraphic" in2="effect1_dropShadow_787:206" result="shape"/>
</filter>
</defs>
</svg>
