<svg width="80" height="80" viewBox="0 0 80 80" fill="none" xmlns="http://www.w3.org/2000/svg">
<rect width="80" height="80" rx="23" fill="#702693"/>
<g clip-path="url(#clip0_570:419)">
<path d="M39.43 16.444C39.3519 16.4578 39.2748 16.4765 39.1992 16.5001C38.7824 16.5915 38.4109 16.8217 38.148 17.1513C37.8851 17.4809 37.747 17.8896 37.7574 18.3078V20.1154H21.142C19.6731 20.1154 18.2644 20.6868 17.2257 21.7038C16.187 22.7209 15.6035 24.1002 15.6035 25.5385V49.0385C15.6035 52.0321 18.0847 54.4616 21.142 54.4616H37.7574V55.1395L27.718 60.0546C27.2744 60.2643 26.934 60.6381 26.7718 61.0935C26.6096 61.549 26.6388 62.0489 26.8531 62.4832C27.0673 62.9176 27.4489 63.2508 27.9141 63.4097C28.3792 63.5685 28.8898 63.5399 29.3334 63.3301L37.7574 59.2068V59.8847C37.7574 60.3641 37.9519 60.8239 38.2981 61.1629C38.6443 61.5019 39.1139 61.6924 39.6035 61.6924C40.0931 61.6924 40.5627 61.5019 40.9089 61.1629C41.2552 60.8239 41.4497 60.3641 41.4497 59.8847V59.2068L49.8737 63.3301C50.3173 63.5399 50.8278 63.5685 51.293 63.4097C51.7581 63.2508 52.1398 62.9176 52.354 62.4832C52.5682 62.0489 52.5974 61.549 52.4352 61.0935C52.273 60.6381 51.9327 60.2643 51.4891 60.0546L41.4497 55.1395V54.4616H58.0651C61.1223 54.4616 63.6035 52.0321 63.6035 49.0385V25.5385C63.6035 24.1002 63.02 22.7209 61.9813 21.7038C60.9427 20.6868 59.5339 20.1154 58.0651 20.1154H41.4497V18.3078C41.459 18.0507 41.4122 17.7947 41.3124 17.5567C41.2125 17.3188 41.062 17.1045 40.8708 16.9281C40.6797 16.7516 40.4522 16.6172 40.2038 16.5337C39.9553 16.4503 39.6915 16.4197 39.43 16.444ZM19.2958 25.5385H59.9112V49.0385H19.2958V25.5385ZM54.142 27.3462C53.7284 27.3897 53.342 27.5687 53.0454 27.8542L46.9881 33.787L42.7771 29.6601C42.5754 29.4574 42.328 29.304 42.0547 29.2121C41.7814 29.1202 41.4899 29.0923 41.2036 29.1309C40.9174 29.1694 40.6443 29.2731 40.4065 29.4338C40.1687 29.5945 39.9727 29.8076 39.8343 30.0559L34.3531 39.4343L32.1026 33.8973C31.9933 33.6114 31.8119 33.3573 31.5752 33.1586C31.3385 32.9599 31.0543 32.8231 30.7491 32.7611C30.4438 32.699 30.1275 32.7136 29.8296 32.8035C29.5317 32.8935 29.2619 33.0558 29.0454 33.2754L23.5069 38.6985C23.1544 39.0435 22.9562 39.5114 22.956 39.9994C22.9559 40.4874 23.1537 40.9555 23.506 41.3007C23.8583 41.6459 24.3362 41.8399 24.8346 41.8401C25.3329 41.8402 25.811 41.6465 26.1635 41.3016L29.6823 37.8561L32.3371 44.2951C32.4624 44.6181 32.6795 44.8991 32.9629 45.1049C33.2462 45.3107 33.5838 45.4328 33.9358 45.4565C34.2878 45.4803 34.6393 45.4048 34.9488 45.2391C35.2584 45.0733 35.5129 44.8241 35.6823 44.5211L41.8558 33.9569L45.6626 37.6862C45.8348 37.8606 46.041 37.9993 46.269 38.094C46.4971 38.1887 46.7423 38.2375 46.99 38.2375C47.2377 38.2375 47.4829 38.1887 47.7109 38.094C47.939 37.9993 48.1452 37.8606 48.3174 37.6862L55.702 30.4554C55.9936 30.1911 56.1903 29.8416 56.2629 29.459C56.3355 29.0764 56.28 28.6811 56.1048 28.3318C55.9295 27.9826 55.6439 27.698 55.2902 27.5204C54.9366 27.3429 54.5339 27.2818 54.142 27.3462Z" fill="#DBDBDB"/>
</g>
<defs>
<clipPath id="clip0_570:419">
<rect width="48" height="47" fill="white" transform="translate(15.6035 16.5)"/>
</clipPath>
</defs>
</svg>
