<svg width="163" height="119" viewBox="0 0 163 119" fill="none" xmlns="http://www.w3.org/2000/svg">
<g filter="url(#filter0_d_787:205)">
<rect x="11" y="11" width="140.271" height="96.1857" rx="15.875" fill="white"/>
<path fill-rule="evenodd" clip-rule="evenodd" d="M53.5836 76.1568H45.0859L38.7137 51.8463C38.4112 50.728 37.769 49.7394 36.8244 49.2735C34.4669 48.1025 31.8691 47.1706 29.0352 46.7006V45.7647H42.7243C44.6136 45.7647 46.0305 47.1706 46.2667 48.8035L49.573 66.3394L58.0665 45.7647H66.3281L53.5836 76.1568ZM71.0507 76.1568H63.0253L69.6337 45.7647H77.6591L71.0507 76.1568ZM88.0414 54.1849C88.2776 52.548 89.6945 51.6121 91.3477 51.6121C93.9454 51.3771 96.7753 51.8471 99.1369 53.014L100.554 46.4704C98.1922 45.5345 95.5944 45.0645 93.237 45.0645C85.4478 45.0645 79.7799 49.2742 79.7799 55.1168C79.7799 59.5616 83.7946 61.8954 86.6286 63.3013C89.6945 64.7032 90.8753 65.6392 90.6392 67.0411C90.6392 69.1439 88.2776 70.0799 85.9201 70.0799C83.0861 70.0799 80.2522 69.3789 77.6585 68.208L76.2416 74.7556C79.0755 75.9225 82.1415 76.3925 84.9754 76.3925C93.7093 76.6235 99.1369 72.4177 99.1369 66.1051C99.1369 58.1556 88.0414 57.6897 88.0414 54.1849ZM127.225 76.1568L120.852 45.7647H114.008C112.591 45.7647 111.174 46.7006 110.702 48.1025L98.9017 76.1568H107.163L108.812 71.7161H118.963L119.908 76.1568H127.225ZM115.188 53.9502L117.546 65.4045H110.937L115.188 53.9502Z" fill="#172B85"/>
</g>
<defs>
<filter id="filter0_d_787:205" x="9.53674e-07" y="9.53674e-07" width="162.271" height="118.186" filterUnits="userSpaceOnUse" color-interpolation-filters="sRGB">
<feFlood flood-opacity="0" result="BackgroundImageFix"/>
<feColorMatrix in="SourceAlpha" type="matrix" values="0 0 0 0 0 0 0 0 0 0 0 0 0 0 0 0 0 0 127 0" result="hardAlpha"/>
<feOffset/>
<feGaussianBlur stdDeviation="5.5"/>
<feComposite in2="hardAlpha" operator="out"/>
<feColorMatrix type="matrix" values="0 0 0 0 0 0 0 0 0 0 0 0 0 0 0 0 0 0 0.05 0"/>
<feBlend mode="normal" in2="BackgroundImageFix" result="effect1_dropShadow_787:205"/>
<feBlend mode="normal" in="SourceGraphic" in2="effect1_dropShadow_787:205" result="shape"/>
</filter>
</defs>
</svg>
